<svg width="50" height="50" viewBox="0 0 50 50" fill="none" xmlns="http://www.w3.org/2000/svg">
<circle cx="25" cy="25" r="25" fill="white"/>
<path d="M49.9905 25.0093C49.9928 29.4425 48.8161 33.7965 46.5809 37.6254C44.3458 41.4542 41.1326 44.6201 37.2706 46.7986V15.927L33.7585 13.9049L30.2338 11.8575L26.7249 9.8385L23.2128 7.80374C22.8562 7.59755 22.4516 7.48892 22.0397 7.4888C21.6277 7.48867 21.223 7.59705 20.8663 7.80302C20.5096 8.009 20.2135 8.30529 20.0077 8.66207C19.802 9.01885 19.6939 9.42352 19.6944 9.83534V16.3213C19.6937 16.8027 19.8199 17.2757 20.0603 17.6928C20.3008 18.1098 20.6469 18.4561 21.0639 18.6968L23.2128 19.9334V11.8575L26.728 13.8733V20.3719C26.7284 20.8518 26.8551 21.3232 27.0955 21.7385C27.3359 22.1538 27.6815 22.4986 28.0975 22.7379L30.2338 23.9872V15.9112L33.7522 17.9397V44.7165C33.7523 45.1916 33.8774 45.6584 34.115 46.0698C34.3526 46.4812 34.6944 46.8229 35.106 47.0605L35.898 47.5179C30.0503 50.3359 23.3363 50.7724 17.1728 48.7352C11.0094 46.6981 5.87868 42.3466 2.86359 36.5993C-0.151493 30.852 -0.815103 24.1583 1.01282 17.9311C2.84074 11.7039 7.01719 6.43023 12.6607 3.22315V34.1074L16.176 36.1358L19.6944 38.1643L23.2128 40.199L26.728 42.2275C27.0835 42.4323 27.4867 42.54 27.8969 42.5398C28.3072 42.5395 28.7102 42.4314 29.0655 42.2261C29.4207 42.0209 29.7157 41.7259 29.9208 41.3706C30.1259 41.0153 30.2338 40.6124 30.2338 40.2022V28.5867C30.2341 28.4241 30.1914 28.2643 30.1099 28.1236C30.0284 27.9828 29.9111 27.8662 29.77 27.7854L26.7249 26.022L23.2128 23.9967L19.6944 21.9587V24.391C19.694 24.8848 19.8239 25.37 20.071 25.7976C20.3181 26.2252 20.6737 26.58 21.1018 26.8264L22.364 27.552L22.8846 27.8674L23.1465 28.0157L23.2254 28.0599L26.7407 30.0883V38.1958L19.6944 34.1421L16.176 32.1042V5.28946C16.176 4.81477 16.0509 4.34845 15.8133 3.9375C15.5756 3.52655 15.2338 3.18549 14.8223 2.9487L14.0271 2.51651C17.8431 0.662845 22.0677 -0.190806 26.3042 0.0357224C30.5408 0.26225 34.6502 1.56152 38.2466 3.81153C41.8431 6.06153 44.8085 9.18845 46.8644 12.8986C48.9203 16.6088 49.9993 20.7805 50 25.0219L49.9905 25.0093Z" fill="url(#paint0_linear_115_3)"/>
<defs>
<linearGradient id="paint0_linear_115_3" x1="2.28854" y1="35.6058" x2="47.6353" y2="14.4034" gradientUnits="userSpaceOnUse">
<stop stop-color="#231143"/>
<stop offset="1" stop-color="#5852BC"/>
</linearGradient>
</defs>
</svg>
